<?xml version="1.0" encoding="UTF-8"?>
<!DOCTYPE svg PUBLIC "-//W3C//DTD SVG 1.1//EN" "http://www.w3.org/Graphics/SVG/1.1/DTD/svg11.dtd">
<!-- Creator: CorelDRAW 2020 (64-Bit) -->
<svg xmlns="http://www.w3.org/2000/svg" xml:space="preserve" width="5in" height="6in" version="1.1" style="shape-rendering:geometricPrecision; text-rendering:geometricPrecision; image-rendering:optimizeQuality; fill-rule:evenodd; clip-rule:evenodd"
viewBox="0 0 5000 6000"
 xmlns:xlink="http://www.w3.org/1999/xlink"
 xmlns:xodm="http://www.corel.com/coreldraw/odm/2003">
 <defs>
  <style type="text/css">
   <![CDATA[
    .fil0 {fill:#FEFEFE}
    .fil1 {fill:red}
    .fil3 {fill:red;fill-rule:nonzero}
    .fil2 {fill:#FFE100;fill-rule:nonzero}
   ]]>
  </style>
 </defs>
 <g id="Layer_x0020_1">
  <metadata id="CorelCorpID_0Corel-Layer"/>
  <g id="_2212441387712">
   <path class="fil0" d="M2503.85 5506.98c277.8,-964.27 830.63,-775.13 1302.04,-1155.9 306.31,-223.72 293.4,-489.75 120.46,-776.26l-590.73 -898.04c849.63,67.36 816.67,-915.41 262.87,-914.4 263.67,-442.78 -232.92,-955.06 -612.66,-654.91 -2.22,-447.06 -265.05,-615.69 -495.58,-614.44 -282.22,2.01 -527.57,255.44 -506.96,618.09 -381.8,-296.08 -834.85,169.64 -624.07,651.26 -538.77,22.84 -558.29,948.61 241.13,917.59l-492.01 819.04c-266.5,414.11 -183.71,707.41 181.18,922.99 851.24,398.25 949.52,366.98 1214.34,1084.98z"/>
   <path class="fil1" d="M2484.25 638.51c-225.4,0 -359.66,214.52 -358.85,453.03 2.32,208.87 176.57,428.8 197.57,626.24 19.11,186.85 -11.55,340.74 -94.15,349.69 -73.46,9.23 -195.22,-122.5 -195.22,-484.91 0,-278.63 -202.57,-520.95 -423.04,-380.91 -157.16,99.65 -216.82,320.17 -100.96,526.43 70.05,122.93 216.8,194.91 303.74,295.93 100.11,117.91 115.94,277.62 56.3,310.72 -64.22,36.69 -226.88,-113.55 -326.8,-307.32 -64.02,-125.03 -266.11,-177.82 -362.48,-22.72 -183.32,297.89 83.97,498.67 259.47,522.59 267.06,38.25 596.29,-58.19 1044.4,-58.19 449.76,0 780.33,96.44 1047.54,58.19 175.39,-23.92 442.85,-224.7 259.12,-522.59 -96.36,-155.09 -298.26,-102.31 -362.55,22.72 -99.49,193.77 -262.56,344 -327.8,307.32 -59.64,-33.09 -42.38,-192.8 57.25,-310.72 87.19,-101.02 232.69,-172.99 302.7,-295.93 117.02,-206.26 57.5,-426.79 -99.74,-526.43 -221.38,-140.04 -423.02,102.29 -423.02,380.91 0,362.4 -122.91,494.14 -196.41,484.91 -81.29,-8.96 -113.26,-162.84 -93.8,-349.69 20.68,-197.44 196.15,-417.37 197.25,-626.24 2.3,-238.51 -131.99,-453.03 -360.53,-453.03z"/>
   <path class="fil2" d="M3132.75 2632.97c35.35,41.41 677.77,1009.3 724.7,1134.2 47.19,123.91 59.6,235.17 10.43,312.26 -33.11,53.85 -75.8,99.61 -125.07,139.52 -48.23,41.59 -103.1,75.74 -162.88,108.02 -59.68,32.07 -123.9,62.09 -189.2,90.57 -66.63,27.67 -134.24,56.13 -202.9,85.9 -67.73,31.11 -136.66,63.33 -203.17,99.8 -66.57,36.8 -131.72,76.96 -191.61,125.21 -60.72,48.15 -116.66,103.2 -167.44,168.49 -49.41,64.31 -94.12,137.57 -128.53,223.72 -35.7,-86.15 -79.24,-159.4 -128.37,-223.72 -48.21,-65.3 -104.49,-120.34 -164.15,-168.49 -59.66,-48.25 -123.86,-88.41 -190.31,-125.21 -66.59,-36.47 -135.23,-68.7 -203.15,-99.8 -68.68,-29.77 -137.59,-58.23 -202.85,-86.9 -66.34,-27.48 -130.9,-57.5 -190.35,-89.57 -59.7,-32.28 -114.53,-66.44 -164.06,-108.02 -48,-39.91 -90.71,-85.67 -124.9,-139.52 -47.92,-77.09 -40.18,-188.35 2.01,-313.24 42.69,-123.92 637.84,-1086.2 671.11,-1126.24 9.04,-10.45 346.45,-72.27 681.34,-72.27 335.91,0 639.96,56.15 649.35,65.3z"/>
   <path class="fil3" d="M2802.34 2845.04c-135.5,101.02 -253.56,232.94 -330.46,419.88 -77.96,-186.94 -193.85,-318.86 -329.23,-418.66 117,42.44 218.13,-60.61 329.23,-60.61 110.28,-1.35 228.46,103.04 330.46,59.39z"/>
   <path class="fil1" d="M2005.31 4142.27c-7.11,-3.26 -13.82,-5.96 -25.39,-5.96 -14.98,0 -25.12,7.05 -35.74,16.14l0 -12.4 -60.61 0 0 207.52 60.61 0 0 -134.3c2.31,-14.93 11.7,-20.41 22.9,-20.41 11.64,0 18.44,4.61 26.72,12.45l11.51 -63.04z"/>
   <path class="fil1" d="M2097.98 4136.3c-50.62,0 -78,38.13 -78,109.05 0,65.53 26.24,106.62 78,106.62l0 -48.07c-12.45,-0.93 -19.42,-11.37 -20.58,-42.44l20.58 0 0 -40.22 -20.58 0c1.16,-29.52 6.76,-38.91 19.54,-38.91l1.04 0 0 -46.03zm0 215.67l0 0c35.59,0 55.18,-17.01 72.37,-42.09l-35.62 -29.02c-12.65,18.56 -21.72,23.04 -33.29,23.04l-3.46 0 0 48.07zm75.74 -90.52l0 -14.69c0,-73.31 -26.28,-110.46 -75.74,-110.46l0 46.03c13.87,0 19.46,11.53 20.7,38.91l-20.7 0 0 40.22 75.74 0z"/>
   <path class="fil1" d="M2278.07 4141.32c-5.6,2.05 -11.28,6.57 -17.24,11.12l0 -12.41 -59.66 0 0 283.26 59.66 -23.05 0 -64.08c5.96,4.48 11.64,8.17 17.24,11.39l0 -47.11c-7.07,0 -11.28,-3.24 -17.24,-6.89l0 -98.45c5.96,-4.69 10.17,-7.95 17.24,-7.95l0 -45.82zm76.88 101.98c0,-72.31 -19.54,-107.02 -55.24,-107.02 -7.84,0 -14.92,1.43 -21.64,5.04l0 45.82 0.98 0c11.64,0 16.2,7.95 16.2,57.19 0,49.22 -4.56,56.11 -16.2,56.11l-0.98 0 0 47.11c6.72,2.26 12.63,4.4 20.58,4.4 36.76,0 56.3,-34.16 56.3,-108.64z"/>
   <path class="fil1" d="M2536.05 4347.57l0 -207.56 -60.76 0 0 152.51c-5.75,4.67 -10.14,6.89 -18.32,6.89 -10.23,0 -15.04,-6.89 -15.04,-23.06l0 -136.35 -60.49 0 0 146.74c0,44.96 17.3,65.22 51.42,65.22 19.61,0 32.3,-6.57 42.44,-15.8l0 11.39 60.76 0z"/>
   <path class="fil1" d="M2646.28 4141.32c-5.64,2.05 -11.55,6.57 -17.09,11.12l0 -92.83 -60.92 24.15 0 263.78 60.92 0 0 -11.39c5.54,4.48 11.45,8.17 17.09,11.39l0 -47.11c-6.97,0 -12.59,-3.24 -17.09,-6.89l0 -98.45c5.54,-4.69 10.11,-7.95 17.09,-7.95l0 -45.82zm78.12 101.98c0,-72.31 -20.68,-107.02 -56.19,-107.02 -8.17,0 -15.04,1.43 -21.93,5.04l0 45.82 1.25 0c10.18,0 16.1,7.95 16.1,57.19 0,49.22 -5.93,56.11 -16.1,56.11l-1.25 0 0 47.11c5.79,2.26 12.61,4.4 20.56,4.4 36.87,0 57.56,-34.16 57.56,-108.64z"/>
   <polygon class="fil1" points="2813.75,4347.57 2813.75,4059.63 2753.03,4083.75 2753.03,4347.57 "/>
   <path class="fil1" d="M2908.88 4140.03l-60.7 0 0 207.56 60.7 0 0 -207.56zm3.46 -50.65c0,-18.3 -13.57,-30.76 -34.5,-30.76 -19.17,0 -34.11,12.45 -34.11,30.76 0,19.62 14.94,32.28 34.11,32.28 20.93,0 34.5,-12.67 34.5,-32.28z"/>
   <path class="fil1" d="M3086.58 4291.44l-44.56 -22.84c-9.07,24.94 -14.98,31.86 -23.98,31.86 -14.96,0 -21.1,-13.71 -21.1,-56.13 0,-42.46 6.14,-57.17 19.63,-57.17 11.64,0 14.89,7.94 20.93,31.8l48.27 -22.78c-11.58,-35.47 -30.25,-59.87 -69.2,-59.87 -52.59,0 -80.24,35.78 -80.24,108.02 0,74.7 31.05,107.64 78.93,107.64 35.91,0 56.69,-19.5 71.32,-60.53z"/>
   <path class="fil1" d="M1765.4 3896.99l-77.75 -40.2c-14.13,44.46 -24.29,56.34 -40.3,56.34 -25.22,0 -35.8,-24.48 -35.8,-95.54 0,-73.27 9.17,-98.64 33.44,-98.64 19.61,0 26.18,13.94 35.62,55.18l82.52 -38.71c-19.44,-62.31 -51.69,-102.39 -117.06,-102.39 -91.79,0 -136.46,60.88 -136.46,184.56 0,126.25 51.76,182.38 134.24,182.38 60.84,0 95.17,-31.72 121.54,-102.98z"/>
   <path class="fil1" d="M2071.65 3992.04l0 -248.89c0,-75.8 -30.91,-110.09 -89.49,-110.09 -34.48,0 -53.64,11.45 -72.33,27.44l0 -157.13 -103.2 40.26 0 448.42 103.2 0 0 -256.63c9.25,-8.26 19.43,-14.02 32.15,-14.02 17.34,0 25.1,12.49 25.1,39.27l0 231.38 104.57 0z"/>
   <path class="fil1" d="M2230.05 3639.89l-103.18 0 0 352.17 103.18 0 0 -352.17zm6.74 -85.98c0,-30.83 -23.96,-52.94 -58.5,-52.94 -34.18,0 -58.58,22.11 -58.58,52.94 0,31.99 24.4,52.9 58.58,52.9 34.54,0 58.5,-20.91 58.5,-52.9z"/>
   <path class="fil1" d="M2531.5 3896.99l-76.86 -40.2c-13.86,44.46 -24,56.34 -41.26,56.34 -24.02,0 -34.16,-24.48 -34.16,-95.54 0,-73.27 8.69,-98.64 32.98,-98.64 19.67,0 26.24,13.94 35.74,55.18l82.5 -38.71c-19.61,-62.31 -51.47,-102.39 -117.06,-102.39 -90.76,0 -136.46,60.88 -136.46,184.56 0,126.25 51.72,182.38 134.3,182.38 60.67,0 95.15,-31.72 120.29,-102.98z"/>
   <path class="fil1" d="M2848.2 3992.04l-74.39 -241.98 72.06 -110.17 -110.15 0 -14.94 26.37c-19.23,34.56 -36.57,69.85 -47.02,90.67 2.63,-24.02 3.48,-64.22 3.48,-91.54l0 -162.03 -103.24 40.26 0 448.42 103.24 0 0 -114.86 20.85 -35.24 41.01 150.1 109.11 0z"/>
   <path class="fil1" d="M3006.4 3633.06c-84.82,0 -132,64.14 -132,184.52 0,112.51 44.85,182.38 132,182.38l0 -81.09c-19.52,-2.41 -33.21,-20.64 -35.57,-72.52l35.57 0 0 -67.33 -35.57 0c3.34,-51.86 13.83,-68.21 34.41,-68.21l1.16 0 0 -77.75zm0 366.9l1.14 0c59.74,0 93.02,-28.67 122.99,-72.13l-60.99 -48.17c-21.85,29.81 -36.57,39.21 -57.4,39.21l-5.73 0 0 81.09zm129.8 -153.61l0 -25.3c0,-126.04 -44.64,-188 -128.67,-188l-1.14 0 0 77.75c24.13,0 33.44,19.89 35.6,68.21l-35.6 0 0 67.33 129.8 0z"/>
   <path class="fil1" d="M3446.9 3992.04l0 -248.89c0,-75.8 -31.04,-110.09 -89.37,-110.09 -33.42,0 -53.98,11.45 -72.3,27.44l0 -20.6 -103.35 0 0 352.15 103.35 0 0 -256.63c9.13,-8.26 19.36,-14.02 32.07,-14.02 17.19,0 26.61,12.49 26.61,39.27l0 231.38 103 0z"/>
  </g>
 </g>
</svg>
